<svg width="142" height="22" viewBox="0 0 142 22" fill="none" xmlns="http://www.w3.org/2000/svg">
<path d="M10.9531 5.27734L6.09961 21H0.945312L8.25977 1.09375H11.5273L10.9531 5.27734ZM14.9727 21L10.1055 5.27734L9.47656 1.09375H12.7852L20.1406 21H14.9727ZM14.7812 13.5762V17.2812H4.56836V13.5762H14.7812ZM25.2539 9.36523V21H20.6465V6.20703H24.9668L25.2539 9.36523ZM24.707 13.0977L23.627 13.125C23.627 11.9948 23.7637 10.9876 24.0371 10.1035C24.3105 9.21029 24.6979 8.45378 25.1992 7.83398C25.7005 7.21419 26.2975 6.74479 26.9902 6.42578C27.6921 6.09766 28.4714 5.93359 29.3281 5.93359C30.0117 5.93359 30.6361 6.03385 31.2012 6.23438C31.7754 6.4349 32.2676 6.75846 32.6777 7.20508C33.097 7.65169 33.416 8.24414 33.6348 8.98242C33.8626 9.71159 33.9766 10.6139 33.9766 11.6895V21H29.3418V11.6758C29.3418 11.0833 29.2598 10.6322 29.0957 10.3223C28.9316 10.0033 28.6947 9.78451 28.3848 9.66602C28.0749 9.54753 27.6966 9.48828 27.25 9.48828C26.776 9.48828 26.375 9.57943 26.0469 9.76172C25.7188 9.94401 25.4544 10.1992 25.2539 10.5273C25.0625 10.8464 24.9212 11.2246 24.8301 11.6621C24.748 12.0996 24.707 12.5781 24.707 13.0977ZM41.4004 6.20703V21H36.7793V6.20703H41.4004ZM36.5059 2.39258C36.5059 1.73633 36.7428 1.19857 37.2168 0.779297C37.6908 0.360026 38.306 0.150391 39.0625 0.150391C39.819 0.150391 40.4342 0.360026 40.9082 0.779297C41.3822 1.19857 41.6191 1.73633 41.6191 2.39258C41.6191 3.04883 41.3822 3.58659 40.9082 4.00586C40.4342 4.42513 39.819 4.63477 39.0625 4.63477C38.306 4.63477 37.6908 4.42513 37.2168 4.00586C36.7428 3.58659 36.5059 3.04883 36.5059 2.39258ZM48.8926 9.33789V21H44.2852V6.20703H48.6055L48.8926 9.33789ZM48.332 13.0977L47.2793 13.125C47.2793 12.0859 47.4023 11.1289 47.6484 10.2539C47.8945 9.37891 48.2591 8.61784 48.7422 7.9707C49.2253 7.32357 49.8177 6.82227 50.5195 6.4668C51.2305 6.11133 52.0508 5.93359 52.9805 5.93359C53.6276 5.93359 54.2155 6.03385 54.7441 6.23438C55.2728 6.42578 55.7285 6.73112 56.1113 7.15039C56.4941 7.56055 56.7858 8.09831 56.9863 8.76367C57.196 9.41992 57.3008 10.2083 57.3008 11.1289V21H52.6934V11.7168C52.6934 11.0879 52.6204 10.6139 52.4746 10.2949C52.3379 9.97591 52.1374 9.76172 51.873 9.65234C51.6087 9.54297 51.2852 9.48828 50.9023 9.48828C50.5013 9.48828 50.1413 9.57943 49.8223 9.76172C49.5033 9.94401 49.2298 10.1992 49.002 10.5273C48.7832 10.8464 48.6146 11.2246 48.4961 11.6621C48.3867 12.0996 48.332 12.5781 48.332 13.0977ZM56.7812 13.0977L55.4961 13.125C55.4961 12.0859 55.61 11.1289 55.8379 10.2539C56.0749 9.37891 56.4258 8.61784 56.8906 7.9707C57.3646 7.32357 57.9525 6.82227 58.6543 6.4668C59.3561 6.11133 60.1719 5.93359 61.1016 5.93359C61.776 5.93359 62.3958 6.03385 62.9609 6.23438C63.526 6.4349 64.0137 6.75846 64.4238 7.20508C64.834 7.65169 65.153 8.24414 65.3809 8.98242C65.6087 9.71159 65.7227 10.6139 65.7227 11.6895V21H61.1016V11.6895C61.1016 11.0788 61.0286 10.6185 60.8828 10.3086C60.7461 9.98958 60.5456 9.77539 60.2812 9.66602C60.0169 9.54753 59.7025 9.48828 59.3379 9.48828C58.9004 9.48828 58.5221 9.57943 58.2031 9.76172C57.8841 9.94401 57.6152 10.1992 57.3965 10.5273C57.1868 10.8464 57.0319 11.2246 56.9316 11.6621C56.8314 12.0996 56.7812 12.5781 56.7812 13.0977ZM75.5254 21.2734C74.3223 21.2734 73.2467 21.0866 72.2988 20.7129C71.3509 20.3301 70.5488 19.806 69.8926 19.1406C69.2454 18.4753 68.7487 17.7096 68.4023 16.8438C68.0651 15.9779 67.8965 15.0618 67.8965 14.0957V13.5762C67.8965 12.4915 68.0469 11.4889 68.3477 10.5684C68.6484 9.63867 69.0951 8.82747 69.6875 8.13477C70.2799 7.44206 71.0228 6.9043 71.916 6.52148C72.8092 6.12956 73.8483 5.93359 75.0332 5.93359C76.0814 5.93359 77.0202 6.10221 77.8496 6.43945C78.679 6.77669 79.3809 7.25977 79.9551 7.88867C80.5384 8.51758 80.9805 9.27865 81.2812 10.1719C81.5911 11.0651 81.7461 12.0677 81.7461 13.1797V15.0527H69.6602V12.168H77.248V11.8125C77.2572 11.3203 77.1706 10.901 76.9883 10.5547C76.8151 10.2083 76.5599 9.94401 76.2227 9.76172C75.8854 9.57943 75.4753 9.48828 74.9922 9.48828C74.4909 9.48828 74.0762 9.59766 73.748 9.81641C73.429 10.0352 73.1784 10.3359 72.9961 10.7188C72.8229 11.0924 72.6999 11.5254 72.627 12.0176C72.554 12.5098 72.5176 13.0293 72.5176 13.5762V14.0957C72.5176 14.6426 72.5905 15.1393 72.7363 15.5859C72.8913 16.0326 73.11 16.4154 73.3926 16.7344C73.6842 17.0443 74.0306 17.2858 74.4316 17.459C74.8418 17.6322 75.3066 17.7188 75.8262 17.7188C76.4551 17.7188 77.0749 17.6003 77.6855 17.3633C78.2962 17.1263 78.8203 16.7344 79.2578 16.1875L81.3496 18.6758C81.0488 19.1042 80.6204 19.5189 80.0645 19.9199C79.5176 20.321 78.8613 20.6491 78.0957 20.9043C77.3301 21.1504 76.4733 21.2734 75.5254 21.2734ZM92.6152 10.6367V14.2051H84.3984V10.6367H92.6152ZM100.873 9.33789V21H96.2656V6.20703H100.586L100.873 9.33789ZM100.312 13.0977L99.2598 13.125C99.2598 12.0859 99.3828 11.1289 99.6289 10.2539C99.875 9.37891 100.24 8.61784 100.723 7.9707C101.206 7.32357 101.798 6.82227 102.5 6.4668C103.211 6.11133 104.031 5.93359 104.961 5.93359C105.608 5.93359 106.196 6.03385 106.725 6.23438C107.253 6.42578 107.709 6.73112 108.092 7.15039C108.475 7.56055 108.766 8.09831 108.967 8.76367C109.176 9.41992 109.281 10.2083 109.281 11.1289V21H104.674V11.7168C104.674 11.0879 104.601 10.6139 104.455 10.2949C104.318 9.97591 104.118 9.76172 103.854 9.65234C103.589 9.54297 103.266 9.48828 102.883 9.48828C102.482 9.48828 102.122 9.57943 101.803 9.76172C101.484 9.94401 101.21 10.1992 100.982 10.5273C100.764 10.8464 100.595 11.2246 100.477 11.6621C100.367 12.0996 100.312 12.5781 100.312 13.0977ZM108.762 13.0977L107.477 13.125C107.477 12.0859 107.59 11.1289 107.818 10.2539C108.055 9.37891 108.406 8.61784 108.871 7.9707C109.345 7.32357 109.933 6.82227 110.635 6.4668C111.337 6.11133 112.152 5.93359 113.082 5.93359C113.757 5.93359 114.376 6.03385 114.941 6.23438C115.507 6.4349 115.994 6.75846 116.404 7.20508C116.814 7.65169 117.133 8.24414 117.361 8.98242C117.589 9.71159 117.703 10.6139 117.703 11.6895V21H113.082V11.6895C113.082 11.0788 113.009 10.6185 112.863 10.3086C112.727 9.98958 112.526 9.77539 112.262 9.66602C111.997 9.54753 111.683 9.48828 111.318 9.48828C110.881 9.48828 110.503 9.57943 110.184 9.76172C109.865 9.94401 109.596 10.1992 109.377 10.5273C109.167 10.8464 109.012 11.2246 108.912 11.6621C108.812 12.0996 108.762 12.5781 108.762 13.0977ZM125.209 6.20703V21H120.588V6.20703H125.209ZM120.314 2.39258C120.314 1.73633 120.551 1.19857 121.025 0.779297C121.499 0.360026 122.115 0.150391 122.871 0.150391C123.628 0.150391 124.243 0.360026 124.717 0.779297C125.191 1.19857 125.428 1.73633 125.428 2.39258C125.428 3.04883 125.191 3.58659 124.717 4.00586C124.243 4.42513 123.628 4.63477 122.871 4.63477C122.115 4.63477 121.499 4.42513 121.025 4.00586C120.551 3.58659 120.314 3.04883 120.314 2.39258ZM131.963 6.20703L134.041 10.2812L136.188 6.20703H140.973L137.09 13.4121L141.178 21H136.352L134.041 16.625L131.744 21H126.918L131.006 13.4121L127.137 6.20703H131.963Z" fill="#CC0505"/>
</svg>
