<svg width="116" height="12" viewBox="0 0 116 12" fill="none" xmlns="http://www.w3.org/2000/svg">
<path d="M4.34766 1.4707L0.806641 11H0.21875L3.95801 1.04688H4.41602L4.34766 1.4707ZM7.69727 11L4.16309 1.4707L4.09473 1.04688H4.5459L8.29199 11H7.69727ZM6.82227 7.58887V8.10156H1.71582V7.58887H6.82227ZM16.4924 5.18262V11H15.9523V3.60352H16.4855L16.4924 5.18262ZM16.3898 6.73438L16.1232 6.41992C16.1643 6.02799 16.26 5.6543 16.4104 5.29883C16.5653 4.94336 16.7681 4.62891 17.0188 4.35547C17.274 4.08203 17.5702 3.86556 17.9074 3.70605C18.2492 3.54655 18.6252 3.4668 19.0354 3.4668C19.4045 3.4668 19.7349 3.51921 20.0266 3.62402C20.3182 3.72428 20.5643 3.88379 20.7648 4.10254C20.9699 4.32129 21.1249 4.60384 21.2297 4.9502C21.3345 5.29199 21.3869 5.70898 21.3869 6.20117V11H20.8469V6.20117C20.8469 5.61784 20.7671 5.16667 20.6076 4.84766C20.4481 4.52409 20.2248 4.29622 19.9377 4.16406C19.6551 4.0319 19.3247 3.96582 18.9465 3.96582C18.509 3.96582 18.1307 4.0638 17.8117 4.25977C17.4973 4.45117 17.2375 4.69499 17.0324 4.99121C16.8273 5.28288 16.6701 5.58594 16.5607 5.90039C16.4559 6.21484 16.399 6.49284 16.3898 6.73438ZM30.5717 3.60352V11H30.0248V3.60352H30.5717ZM29.8539 1.36133C29.8539 1.23828 29.8949 1.13346 29.977 1.04688C30.0635 0.955729 30.1729 0.910156 30.3051 0.910156C30.4327 0.910156 30.5398 0.955729 30.6264 1.04688C30.713 1.13346 30.7563 1.23828 30.7563 1.36133C30.7563 1.48438 30.713 1.58919 30.6264 1.67578C30.5398 1.75781 30.4327 1.79883 30.3051 1.79883C30.1729 1.79883 30.0635 1.75781 29.977 1.67578C29.8949 1.58919 29.8539 1.48438 29.8539 1.36133ZM39.7154 5.16895V11H39.1686V3.60352H39.7018L39.7154 5.16895ZM39.6266 6.73438L39.3531 6.41992C39.3896 6.02799 39.4807 5.6543 39.6266 5.29883C39.777 4.94336 39.9752 4.62891 40.2213 4.35547C40.4719 4.08203 40.7659 3.86556 41.1031 3.70605C41.4449 3.54655 41.8255 3.4668 42.2447 3.4668C42.6139 3.4668 42.9443 3.51693 43.2359 3.61719C43.5322 3.71289 43.7828 3.86556 43.9879 4.0752C44.193 4.28027 44.3502 4.54915 44.4596 4.88184C44.5689 5.21452 44.6236 5.61328 44.6236 6.07812V11H44.0768V6.0918C44.0768 5.53581 43.9947 5.10514 43.8307 4.7998C43.6666 4.49447 43.4387 4.28027 43.1471 4.15723C42.8554 4.02962 42.5204 3.96582 42.1422 3.96582C41.6956 3.96582 41.315 4.0638 41.0006 4.25977C40.6861 4.45117 40.4286 4.69499 40.2281 4.99121C40.0322 5.28288 39.8863 5.58594 39.7906 5.90039C39.6949 6.21484 39.6402 6.49284 39.6266 6.73438ZM44.6168 6.12598L44.2477 5.99609C44.2841 5.66341 44.3775 5.34668 44.5279 5.0459C44.6829 4.74056 44.8857 4.47168 45.1363 4.23926C45.387 4.00228 45.6809 3.81543 46.0182 3.67871C46.36 3.53743 46.7382 3.4668 47.1529 3.4668C47.5312 3.4668 47.8684 3.51921 48.1646 3.62402C48.4654 3.72428 48.7161 3.88607 48.9166 4.10938C49.1217 4.32812 49.2789 4.61068 49.3883 4.95703C49.4977 5.29883 49.5523 5.71354 49.5523 6.20117V11H49.0055V6.19434C49.0055 5.611 48.9234 5.15755 48.7594 4.83398C48.5953 4.51042 48.3674 4.28483 48.0758 4.15723C47.7841 4.02507 47.4469 3.96126 47.0641 3.96582C46.6585 3.97038 46.3053 4.04557 46.0045 4.19141C45.7037 4.33724 45.4531 4.52181 45.2525 4.74512C45.052 4.96842 44.8994 5.20312 44.7945 5.44922C44.6897 5.69076 44.6305 5.91634 44.6168 6.12598ZM60.7674 11.1367C60.3025 11.1367 59.8719 11.0479 59.4754 10.8701C59.0789 10.6878 58.7326 10.4349 58.4363 10.1113C58.1401 9.7832 57.9077 9.39583 57.7391 8.94922C57.575 8.5026 57.493 8.0127 57.493 7.47949V7.17871C57.493 6.62728 57.575 6.12598 57.7391 5.6748C57.9077 5.21908 58.1355 4.82715 58.4227 4.49902C58.7098 4.16634 59.0402 3.91113 59.4139 3.7334C59.7921 3.55566 60.1954 3.4668 60.6238 3.4668C61.0568 3.4668 61.4487 3.54655 61.7996 3.70605C62.1505 3.86556 62.4513 4.08887 62.702 4.37598C62.9526 4.66309 63.144 5.00488 63.2762 5.40137C63.4083 5.79785 63.4744 6.23535 63.4744 6.71387V7.17188H57.8348V6.67285H62.9344V6.58398C62.9298 6.11914 62.8341 5.68848 62.6473 5.29199C62.465 4.89551 62.2029 4.5765 61.8611 4.33496C61.5193 4.08887 61.1069 3.96582 60.6238 3.96582C60.2365 3.96582 59.8833 4.04785 59.5643 4.21191C59.2498 4.37598 58.9786 4.60384 58.7508 4.89551C58.5229 5.18262 58.3475 5.52214 58.2244 5.91406C58.1014 6.30143 58.0398 6.72298 58.0398 7.17871V7.47949C58.0398 7.91699 58.1082 8.32715 58.2449 8.70996C58.3816 9.09277 58.573 9.43001 58.8191 9.72168C59.0652 10.0088 59.3546 10.2344 59.6873 10.3984C60.02 10.5625 60.3846 10.6445 60.7811 10.6445C61.2094 10.6445 61.6014 10.5693 61.9568 10.4189C62.3123 10.2686 62.6359 10.0042 62.9275 9.62598L63.283 9.89258C63.1189 10.1296 62.9207 10.3415 62.6883 10.5283C62.4559 10.7152 62.1801 10.8633 61.8611 10.9727C61.5467 11.082 61.1821 11.1367 60.7674 11.1367ZM73.9512 6.2627V6.76172H70.7178V6.2627H73.9512ZM82.3498 5.16895V11H81.8029V3.60352H82.3361L82.3498 5.16895ZM82.2609 6.73438L81.9875 6.41992C82.024 6.02799 82.1151 5.6543 82.2609 5.29883C82.4113 4.94336 82.6096 4.62891 82.8557 4.35547C83.1063 4.08203 83.4003 3.86556 83.7375 3.70605C84.0793 3.54655 84.4598 3.4668 84.8791 3.4668C85.2482 3.4668 85.5786 3.51693 85.8703 3.61719C86.1665 3.71289 86.4172 3.86556 86.6223 4.0752C86.8273 4.28027 86.9846 4.54915 87.0939 4.88184C87.2033 5.21452 87.258 5.61328 87.258 6.07812V11H86.7111V6.0918C86.7111 5.53581 86.6291 5.10514 86.465 4.7998C86.301 4.49447 86.0731 4.28027 85.7814 4.15723C85.4898 4.02962 85.1548 3.96582 84.7766 3.96582C84.33 3.96582 83.9494 4.0638 83.635 4.25977C83.3205 4.45117 83.063 4.69499 82.8625 4.99121C82.6665 5.28288 82.5207 5.58594 82.425 5.90039C82.3293 6.21484 82.2746 6.49284 82.2609 6.73438ZM87.2512 6.12598L86.882 5.99609C86.9185 5.66341 87.0119 5.34668 87.1623 5.0459C87.3173 4.74056 87.5201 4.47168 87.7707 4.23926C88.0214 4.00228 88.3153 3.81543 88.6525 3.67871C88.9943 3.53743 89.3726 3.4668 89.7873 3.4668C90.1656 3.4668 90.5028 3.51921 90.799 3.62402C91.0998 3.72428 91.3505 3.88607 91.551 4.10938C91.7561 4.32812 91.9133 4.61068 92.0227 4.95703C92.132 5.29883 92.1867 5.71354 92.1867 6.20117V11H91.6398V6.19434C91.6398 5.611 91.5578 5.15755 91.3938 4.83398C91.2297 4.51042 91.0018 4.28483 90.7102 4.15723C90.4185 4.02507 90.0813 3.96126 89.6984 3.96582C89.2928 3.97038 88.9397 4.04557 88.6389 4.19141C88.3381 4.33724 88.0874 4.52181 87.8869 4.74512C87.6864 4.96842 87.5337 5.20312 87.4289 5.44922C87.3241 5.69076 87.2648 5.91634 87.2512 6.12598ZM101.296 3.60352V11H100.749V3.60352H101.296ZM100.579 1.36133C100.579 1.23828 100.62 1.13346 100.702 1.04688C100.788 0.955729 100.898 0.910156 101.03 0.910156C101.157 0.910156 101.264 0.955729 101.351 1.04688C101.438 1.13346 101.481 1.23828 101.481 1.36133C101.481 1.48438 101.438 1.58919 101.351 1.67578C101.264 1.75781 101.157 1.79883 101.03 1.79883C100.898 1.79883 100.788 1.75781 100.702 1.67578C100.62 1.58919 100.579 1.48438 100.579 1.36133ZM109.962 3.60352L112.183 6.76855L114.398 3.60352H115.061L112.498 7.21289L115.191 11H114.535L112.183 7.66406L109.832 11H109.175L111.862 7.21289L109.305 3.60352H109.962Z" fill="#CC0505"/>
</svg>
