<svg width="119" height="24" viewBox="0 0 119 24" fill="none" xmlns="http://www.w3.org/2000/svg">
<path d="M5.64 22.704V17.184C5.144 17.888 4.6 18.576 4.008 19.248C3.416 19.904 2.888 20.44 2.424 20.856C2.216 20.6 1.904 20.312 1.488 19.992C1.088 19.656 0.736 19.424 0.432 19.296C0.88 18.992 1.36 18.568 1.872 18.024C2.4 17.48 2.912 16.896 3.408 16.272C3.904 15.648 4.312 15.072 4.632 14.544H1.704V12.12H5.64V10.536H1.272V8.304H3.84C3.712 7.888 3.568 7.48 3.408 7.08C3.264 6.664 3.128 6.304 3 6L4.944 5.424H1.824V3.216H5.544V0.912H8.352V3.216H12.072V5.424H8.856L10.848 5.928C10.736 6.28 10.6 6.664 10.44 7.08C10.296 7.496 10.144 7.904 9.984 8.304H12.432V10.536H8.304V12.12H11.904V14.544H8.616C8.888 14.864 9.232 15.216 9.648 15.6C10.064 15.984 10.488 16.352 10.92 16.704C11.368 17.04 11.776 17.312 12.144 17.52C11.984 17.648 11.792 17.832 11.568 18.072C11.344 18.296 11.136 18.536 10.944 18.792C10.752 19.032 10.6 19.24 10.488 19.416C10.2 19.192 9.856 18.888 9.456 18.504C9.056 18.12 8.672 17.728 8.304 17.328V22.704H5.64ZM12.096 22.896C11.808 22.64 11.416 22.36 10.92 22.056C10.44 21.752 10.032 21.544 9.696 21.432C10.544 20.664 11.216 19.776 11.712 18.768C12.208 17.76 12.56 16.576 12.768 15.216C12.976 13.856 13.08 12.264 13.08 10.44V2.88C13.928 2.88 14.84 2.808 15.816 2.664C16.808 2.52 17.76 2.312 18.672 2.04C19.6 1.768 20.392 1.448 21.048 1.08L22.8 3.456C22.24 3.696 21.552 3.936 20.736 4.176C19.92 4.4 19.08 4.6 18.216 4.776C17.368 4.952 16.584 5.064 15.864 5.112V8.424H22.824V11.016H20.568V22.824H17.808V11.016H15.84C15.824 13.8 15.496 16.152 14.856 18.072C14.216 19.992 13.296 21.6 12.096 22.896ZM6.216 8.304H7.536C7.744 7.824 7.944 7.304 8.136 6.744C8.344 6.168 8.488 5.728 8.568 5.424H5.184C5.36 5.76 5.544 6.2 5.736 6.744C5.928 7.288 6.088 7.808 6.216 8.304ZM26.04 22.968C25.976 22.664 25.864 22.264 25.704 21.768C25.544 21.272 25.368 20.872 25.176 20.568C28.488 20.552 31.296 20.128 33.6 19.296C32.896 18.736 32.264 18.12 31.704 17.448C31.064 17.88 30.376 18.264 29.64 18.6C28.92 18.936 28.168 19.232 27.384 19.488C27.288 19.2 27.104 18.848 26.832 18.432C26.576 18 26.336 17.664 26.112 17.424C27.424 17.072 28.648 16.56 29.784 15.888C30.936 15.2 31.904 14.392 32.688 13.464C32.32 13.336 32.056 13.144 31.896 12.888C31.736 12.632 31.656 12.288 31.656 11.856V8.76H34.248V10.824C34.248 11.048 34.304 11.208 34.416 11.304C34.528 11.4 34.744 11.448 35.064 11.448H37.104C37.12 11.448 37.136 11.448 37.152 11.448C37.52 11.448 37.816 11.424 38.04 11.376C38.264 11.328 38.432 11.176 38.544 10.92C38.672 10.648 38.76 10.2 38.808 9.576C39.048 9.704 39.368 9.848 39.768 10.008C40.168 10.152 40.544 10.272 40.896 10.368C40.832 10.32 40.768 10.272 40.704 10.224C40.656 10.16 40.608 10.112 40.56 10.08L42.264 8.64C42.488 8.832 42.728 9.064 42.984 9.336C43.256 9.592 43.536 9.864 43.824 10.152V8.04H36.936C37.208 8.376 37.488 8.744 37.776 9.144C38.064 9.528 38.288 9.832 38.448 10.056C38.192 10.184 37.856 10.376 37.44 10.632C37.04 10.888 36.728 11.104 36.504 11.28C36.376 11.056 36.192 10.776 35.952 10.44C35.728 10.088 35.488 9.744 35.232 9.408C34.976 9.072 34.744 8.816 34.536 8.64L35.472 8.04H28.248V10.632C28.472 10.344 28.68 10.048 28.872 9.744C29.064 9.424 29.24 9.112 29.4 8.808L31.416 10.08C31.224 10.528 30.944 11.016 30.576 11.544C30.208 12.056 29.816 12.552 29.4 13.032C28.984 13.496 28.592 13.888 28.224 14.208C28.112 14.048 27.936 13.864 27.696 13.656C27.456 13.432 27.208 13.224 26.952 13.032C26.696 12.824 26.488 12.672 26.328 12.576C26.68 12.32 27.016 12.024 27.336 11.688C27.656 11.352 27.96 11.008 28.248 10.656H25.512V5.928H29.928C29.784 5.624 29.624 5.328 29.448 5.04C29.288 4.752 29.136 4.512 28.992 4.32L30.024 4.008C29.592 4.008 29.16 4.016 28.728 4.032C28.312 4.032 27.888 4.032 27.456 4.032C27.424 3.712 27.352 3.328 27.24 2.88C27.144 2.432 27.032 2.048 26.904 1.728C28.12 1.776 29.456 1.792 30.912 1.776C32.368 1.744 33.832 1.672 35.304 1.56C36.792 1.448 38.192 1.296 39.504 1.104C40.816 0.895998 41.928 0.647999 42.84 0.36L44.544 2.424C44.048 2.536 43.512 2.648 42.936 2.76C42.36 2.872 41.752 2.984 41.112 3.096L43.368 3.864C43.144 4.472 42.8 5.16 42.336 5.928H46.464V10.656H44.28C44.552 10.96 44.816 11.272 45.072 11.592C45.344 11.896 45.568 12.184 45.744 12.456C45.472 12.6 45.136 12.824 44.736 13.128C44.336 13.432 44.024 13.712 43.8 13.968C43.64 13.68 43.4 13.336 43.08 12.936C42.776 12.52 42.448 12.104 42.096 11.688C41.744 11.256 41.408 10.888 41.088 10.584C40.96 11.48 40.768 12.144 40.512 12.576C40.256 13.008 39.912 13.288 39.48 13.416C39.048 13.544 38.488 13.608 37.8 13.608H35.64C35.528 13.768 35.416 13.928 35.304 14.088C35.208 14.232 35.096 14.384 34.968 14.544H41.76L42.456 15.36C41.912 16.16 41.32 16.888 40.68 17.544C40.04 18.2 39.36 18.792 38.64 19.32C39.76 19.672 41 19.92 42.36 20.064C43.72 20.192 45.224 20.224 46.872 20.16C46.744 20.4 46.608 20.68 46.464 21C46.32 21.336 46.184 21.664 46.056 21.984C45.944 22.32 45.872 22.6 45.84 22.824C41.856 22.76 38.6 22.104 36.072 20.856C34.616 21.544 33.048 22.056 31.368 22.392C29.704 22.728 27.928 22.92 26.04 22.968ZM37.632 5.928H39.384C39.656 5.512 39.936 5.032 40.224 4.488C40.512 3.928 40.72 3.472 40.848 3.12C39.584 3.312 38.216 3.48 36.744 3.624C36.92 3.976 37.096 4.384 37.272 4.848C37.448 5.312 37.568 5.672 37.632 5.928ZM32.784 5.928H34.944C34.832 5.576 34.704 5.2 34.56 4.8C34.416 4.4 34.28 4.072 34.152 3.816C33.752 3.832 33.336 3.856 32.904 3.888C32.488 3.904 32.072 3.92 31.656 3.936C31.864 4.24 32.072 4.592 32.28 4.992C32.504 5.376 32.672 5.688 32.784 5.928ZM36.048 18.168C36.896 17.704 37.64 17.136 38.28 16.464H33.936C34.544 17.104 35.248 17.672 36.048 18.168ZM59.544 22.8V15.24H56.568V21.456H53.712V15.576C53.168 16.008 52.6 16.416 52.008 16.8C51.416 17.184 50.808 17.536 50.184 17.856C49.976 17.52 49.712 17.152 49.392 16.752C49.072 16.352 48.76 16.024 48.456 15.768C49.64 15.256 50.776 14.584 51.864 13.752C52.952 12.92 53.936 11.992 54.816 10.968H49.128V8.616H56.592C56.976 8.008 57.312 7.408 57.6 6.816C56.832 7.008 56.04 7.184 55.224 7.344C54.408 7.488 53.56 7.608 52.68 7.704C52.6 7.384 52.464 6.992 52.272 6.528C52.08 6.048 51.888 5.656 51.696 5.352C52.72 5.272 53.736 5.136 54.744 4.944C55.768 4.736 56.76 4.496 57.72 4.224C57.032 3.936 56.344 3.664 55.656 3.408C54.984 3.152 54.32 2.928 53.664 2.736L55.08 0.696C56.056 1 57.056 1.352 58.08 1.752C59.12 2.136 60.144 2.56 61.152 3.024C62.8 2.336 64.176 1.552 65.28 0.671999L67.536 2.208C66.976 2.624 66.392 3.024 65.784 3.408C65.192 3.776 64.576 4.128 63.936 4.464C64.576 4.816 65.184 5.184 65.76 5.568C66.352 5.952 66.896 6.344 67.392 6.744C67.152 6.968 66.88 7.272 66.576 7.656C66.272 8.024 66.032 8.344 65.856 8.616H70.824V10.968H62.328V12.912H68.592V19.032C68.592 19.88 68.352 20.512 67.872 20.928C67.392 21.344 66.64 21.552 65.616 21.552H64.2C64.184 21.28 64.144 20.968 64.08 20.616C64.016 20.264 63.936 19.92 63.84 19.584C63.76 19.232 63.672 18.952 63.576 18.744H64.848C65.168 18.744 65.4 18.696 65.544 18.6C65.704 18.488 65.784 18.272 65.784 17.952V15.24H62.328V22.8H59.544ZM59.712 8.616H65.64C65.016 8.152 64.304 7.68 63.504 7.2C62.72 6.704 61.88 6.232 60.984 5.784C60.744 5.864 60.496 5.952 60.24 6.048C60 6.128 59.744 6.208 59.472 6.288L60.672 6.696C60.528 7.016 60.376 7.336 60.216 7.656C60.056 7.976 59.888 8.296 59.712 8.616ZM56.592 12.912H59.544V10.968H58.2C57.944 11.32 57.68 11.656 57.408 11.976C57.152 12.28 56.88 12.592 56.592 12.912ZM84.792 23.088C84.584 22.816 84.264 22.504 83.832 22.152C83.4 21.8 83.016 21.544 82.68 21.384C82.952 21.224 83.208 21.056 83.448 20.88C83.688 20.688 83.912 20.48 84.12 20.256C83.576 20.352 82.92 20.456 82.152 20.568C81.384 20.68 80.568 20.784 79.704 20.88C78.84 20.976 77.992 21.064 77.16 21.144C76.328 21.24 75.568 21.312 74.88 21.36C74.192 21.424 73.632 21.472 73.2 21.504L72.84 19.08C73.368 19.064 74.088 19.032 75 18.984C75.928 18.92 76.912 18.856 77.952 18.792V17.4H73.272V15.528H77.952V14.592H73.608V7.488H77.952V6.624H72.84V4.608H77.952V3.792C77.232 3.84 76.536 3.88 75.864 3.912C75.208 3.944 74.624 3.96 74.112 3.96C74.08 3.688 74 3.344 73.872 2.928C73.744 2.496 73.616 2.152 73.488 1.896C74.112 1.912 74.88 1.896 75.792 1.848C76.704 1.8 77.656 1.728 78.648 1.632C79.64 1.536 80.568 1.424 81.432 1.296C82.296 1.152 82.992 0.999999 83.52 0.839999L84.768 2.808C84.288 2.952 83.672 3.088 82.92 3.216C82.184 3.328 81.392 3.432 80.544 3.528V4.608H85.656V6.096H87.624V0.959999H90.312V6.096H94.368C94.368 6.224 94.368 6.472 94.368 6.84C94.368 7.208 94.36 7.608 94.344 8.04C94.344 8.472 94.344 8.856 94.344 9.192C94.344 11.08 94.32 12.776 94.272 14.28C94.224 15.784 94.152 17.016 94.056 17.976C93.96 19.192 93.752 20.136 93.432 20.808C93.112 21.48 92.664 21.944 92.088 22.2C91.512 22.472 90.784 22.608 89.904 22.608H88.464C88.4 22.144 88.304 21.64 88.176 21.096C88.048 20.568 87.944 20.176 87.864 19.92H89.4C89.8 19.92 90.12 19.872 90.36 19.776C90.6 19.68 90.792 19.464 90.936 19.128C91.096 18.792 91.224 18.272 91.32 17.568C91.416 16.768 91.496 15.68 91.56 14.304C91.64 12.912 91.688 11.4 91.704 9.768V8.88H90.288C90.176 12.352 89.656 15.272 88.728 17.64C87.8 19.992 86.488 21.808 84.792 23.088ZM84.624 19.704C85.536 18.6 86.24 17.152 86.736 15.36C87.248 13.552 87.536 11.392 87.6 8.88H85.416V6.624H80.544V7.488H84.864V14.592H80.544V15.528H84.792V17.4H80.544V18.576C81.44 18.496 82.256 18.416 82.992 18.336C83.728 18.24 84.272 18.16 84.624 18.096V19.704ZM76.128 12.912H77.952V11.784H76.128V12.912ZM80.544 12.912H82.368V11.784H80.544V12.912ZM76.128 10.272H77.952V9.144H76.128V10.272ZM80.544 10.272H82.368V9.144H80.544V10.272ZM102.072 17.856V6.312H106.536V4.272H97.272V1.848H118.824V4.272H109.224V6.312H113.784V17.856H102.072ZM97.92 21.84V6.696H100.632V19.416H115.248V6.696H118.008V21.84H97.92ZM109.224 15.552H111.312V13.08H109.224V15.552ZM104.544 15.552H106.536V13.08H104.544V15.552ZM109.224 10.872H111.312V8.64H109.224V10.872ZM104.544 10.872H106.536V8.64H104.544V10.872Z" fill="#CC0505"/>
</svg>
