<svg width="117" height="23" viewBox="0 0 117 23" fill="none" xmlns="http://www.w3.org/2000/svg">
<path d="M22.224 11.144H20.16V22.256H17.352V11.144H15.528C15.528 12.536 15.48 13.752 15.384 14.792C15.304 15.832 15.16 16.792 14.952 17.672C14.744 18.552 14.472 19.384 14.136 20.168C13.8 20.968 13.368 21.816 12.84 22.712L10.152 21.32C10.536 20.76 10.864 20.24 11.136 19.76C11.408 19.264 11.648 18.768 11.856 18.272L10.176 19.448C9.904 18.952 9.632 18.488 9.36 18.056C9.088 17.608 8.832 17.216 8.592 16.88V19.688C8.592 20.152 8.576 20.536 8.544 20.84C8.512 21.16 8.416 21.424 8.256 21.632C8.112 21.84 7.872 22 7.536 22.112C7.2 22.24 6.728 22.336 6.12 22.4L4.848 22.52L4.08 19.808L4.968 19.712C5.176 19.696 5.336 19.664 5.448 19.616C5.56 19.568 5.648 19.496 5.712 19.4C5.776 19.288 5.816 19.144 5.832 18.968C5.848 18.776 5.856 18.528 5.856 18.224V14.936H1.896V12.272H5.856V10.712H1.536V8.072H3.864L3.312 5.336H2.184V2.84H5.856L5.448 0.895998L8.448 0.727999L8.808 2.84H12.144V5.336H11.208L10.632 8.072H12.36V10.712H8.592V12.272H12.216V14.936H8.592V16.088L10.296 15.032C10.536 15.368 10.816 15.776 11.136 16.256C11.472 16.72 11.776 17.2 12.048 17.696C12.208 17.232 12.336 16.744 12.432 16.232C12.528 15.72 12.6 15.168 12.648 14.576C12.712 13.968 12.752 13.312 12.768 12.608C12.784 11.904 12.792 11.12 12.792 10.256V2.696C13.496 2.632 14.216 2.544 14.952 2.432C15.688 2.32 16.4 2.192 17.088 2.048C17.792 1.904 18.456 1.744 19.08 1.568C19.72 1.392 20.304 1.208 20.832 1.016L21.744 3.824C21.344 3.984 20.896 4.144 20.4 4.304C19.904 4.448 19.384 4.584 18.84 4.712C18.296 4.84 17.736 4.96 17.16 5.072C16.6 5.184 16.056 5.272 15.528 5.336V8.312H22.224V11.144ZM6.432 8.072H8.04L8.616 5.336H5.928L6.432 8.072ZM5.472 16.064C5.424 16.24 5.296 16.56 5.088 17.024C4.88 17.472 4.64 17.968 4.368 18.512C4.096 19.056 3.808 19.584 3.504 20.096C3.2 20.608 2.928 21 2.688 21.272L0.432 19.976C0.672 19.656 0.92 19.288 1.176 18.872C1.448 18.456 1.704 18.032 1.944 17.6C2.184 17.152 2.408 16.704 2.616 16.256C2.824 15.792 3 15.368 3.144 14.984L5.472 16.064ZM28.425 9.656H25.713V6.008H29.577C29.497 5.688 29.417 5.36 29.337 5.024C29.257 4.688 29.177 4.376 29.097 4.088L26.673 4.16L26.529 1.832C27.825 1.816 29.241 1.784 30.777 1.736C32.329 1.672 33.881 1.608 35.433 1.544C36.985 1.464 38.489 1.376 39.945 1.28C41.401 1.168 42.697 1.048 43.833 0.92L44.169 3.344L42.681 3.488C42.553 3.856 42.409 4.264 42.249 4.712C42.105 5.144 41.953 5.576 41.793 6.008H45.057V9.656H42.297V8.288H28.425V9.656ZM39.081 6.008C39.225 5.64 39.361 5.256 39.489 4.856C39.633 4.44 39.769 4.048 39.897 3.68L37.017 3.824C37.097 4.192 37.161 4.56 37.209 4.928C37.273 5.28 37.329 5.64 37.377 6.008H39.081ZM31.737 4.016C31.833 4.336 31.921 4.672 32.001 5.024C32.097 5.36 32.185 5.688 32.265 6.008H34.641C34.593 5.656 34.537 5.304 34.473 4.952C34.425 4.6 34.369 4.264 34.305 3.944L31.737 4.016ZM45.105 22.664C43.265 22.328 41.649 21.96 40.257 21.56C38.881 21.16 37.641 20.72 36.537 20.24C35.353 20.768 34.065 21.248 32.673 21.68C31.281 22.128 29.753 22.528 28.089 22.88L27.033 20.216L25.953 21.128L24.201 19.112C25.561 18.04 26.721 16.96 27.681 15.872C28.657 14.768 29.457 13.592 30.081 12.344H26.433V10.112H30.969C31.049 9.888 31.113 9.664 31.161 9.44C31.225 9.216 31.289 8.992 31.353 8.768L34.113 9.008C34.081 9.2 34.041 9.392 33.993 9.584C33.945 9.76 33.897 9.936 33.849 10.112H44.457V12.344H33.105C33.025 12.52 32.945 12.696 32.865 12.872C32.785 13.048 32.705 13.224 32.625 13.4H43.401V15.512C42.857 16.088 42.265 16.64 41.625 17.168C41.001 17.696 40.305 18.192 39.537 18.656C41.265 19.152 43.449 19.592 46.089 19.976L45.105 22.664ZM36.465 17.504C37.089 17.216 37.649 16.92 38.145 16.616C38.657 16.296 39.113 15.976 39.513 15.656H33.705C34.089 16.008 34.505 16.336 34.953 16.64C35.401 16.944 35.905 17.232 36.465 17.504ZM27.081 20.192C28.345 19.984 29.513 19.752 30.585 19.496C31.673 19.24 32.681 18.96 33.609 18.656C33.097 18.288 32.617 17.904 32.169 17.504C31.721 17.104 31.297 16.672 30.897 16.208C30.385 16.88 29.809 17.544 29.169 18.2C28.545 18.84 27.849 19.504 27.081 20.192ZM56.85 10.952C56.594 11.288 56.33 11.624 56.058 11.96C55.786 12.28 55.506 12.6 55.218 12.92H58.122V11.624L61.002 11.72V12.92H67.602V18.416C67.602 18.96 67.554 19.4 67.458 19.736C67.362 20.072 67.202 20.336 66.978 20.528C66.754 20.736 66.458 20.888 66.09 20.984C65.722 21.08 65.274 21.152 64.746 21.2L62.85 21.392L62.082 18.752L63.81 18.584C64.178 18.552 64.41 18.488 64.506 18.392C64.602 18.28 64.65 18.048 64.65 17.696V15.56H61.002V22.136H58.122V15.56H54.522V21.128H51.594V16.28C51.258 16.552 50.914 16.824 50.562 17.096C50.226 17.352 49.874 17.616 49.506 17.888L47.826 15.536C48.866 14.864 49.842 14.152 50.754 13.4C51.666 12.632 52.506 11.816 53.274 10.952H49.074V8.384H55.218C55.378 8.112 55.53 7.848 55.674 7.592C55.834 7.32 55.978 7.048 56.106 6.776C55.13 7.048 54.186 7.304 53.274 7.544C52.378 7.768 51.546 7.96 50.778 8.12L50.082 5.6C50.69 5.472 51.394 5.304 52.194 5.096C52.994 4.888 53.85 4.648 54.762 4.376C53.946 4.104 53.21 3.864 52.554 3.656C51.898 3.448 51.362 3.28 50.946 3.152L51.834 0.631999C52.138 0.727999 52.538 0.855999 53.034 1.016C53.53 1.176 54.098 1.36 54.738 1.568C55.378 1.776 56.066 2.008 56.802 2.264C57.538 2.504 58.29 2.752 59.058 3.008C60.37 2.56 61.602 2.12 62.754 1.688C63.906 1.24 64.858 0.832 65.61 0.464L66.786 2.936C65.81 3.416 64.61 3.912 63.186 4.424C64.082 4.744 64.898 5.04 65.634 5.312C66.37 5.568 66.97 5.784 67.434 5.96L66.738 8.384H69.138V10.952H56.85ZM59.01 7.304C58.93 7.48 58.842 7.664 58.746 7.856C58.666 8.032 58.578 8.208 58.482 8.384H66.282C65.434 8.08 64.37 7.704 63.09 7.256C61.81 6.792 60.482 6.32 59.106 5.84C58.674 5.984 58.234 6.128 57.786 6.272C57.354 6.4 56.922 6.528 56.49 6.656L59.01 7.304ZM92.331 4.736L91.899 19.184C91.867 19.696 91.787 20.12 91.659 20.456C91.547 20.792 91.371 21.056 91.131 21.248C90.891 21.456 90.595 21.608 90.243 21.704C89.891 21.816 89.483 21.896 89.019 21.944L86.955 22.16L86.067 19.28L87.963 19.088C88.299 19.04 88.547 18.936 88.707 18.776C88.883 18.616 88.987 18.224 89.019 17.6C89.067 16.832 89.107 16 89.139 15.104C89.187 14.192 89.227 13.288 89.259 12.392C89.291 11.496 89.315 10.64 89.331 9.824C89.363 9.008 89.387 8.288 89.403 7.664H87.363C87.363 7.776 87.355 7.888 87.339 8C87.339 8.096 87.339 8.2 87.339 8.312C87.291 9.576 87.267 10.808 87.267 12.008C87.267 13.192 87.155 14.376 86.931 15.56C86.723 16.744 86.339 17.936 85.779 19.136C85.219 20.336 84.355 21.576 83.187 22.856L80.595 21.248C81.251 20.592 81.811 19.96 82.275 19.352L80.835 20.096C80.771 19.936 80.715 19.784 80.667 19.64C80.619 19.48 80.563 19.312 80.499 19.136C79.315 19.36 78.179 19.552 77.091 19.712C76.003 19.872 75.019 20.024 74.139 20.168C74.011 20.2 73.875 20.224 73.731 20.24C73.603 20.272 73.475 20.304 73.347 20.336L72.531 17.408C72.851 17.248 73.059 17.088 73.155 16.928C73.267 16.768 73.379 16.592 73.491 16.4C73.571 16.256 73.691 16.016 73.851 15.68C74.027 15.328 74.219 14.912 74.427 14.432C74.635 13.952 74.843 13.416 75.051 12.824C75.275 12.232 75.475 11.608 75.651 10.952H72.627V8H82.443V10.952H78.651C78.491 11.48 78.307 12.04 78.099 12.632C77.891 13.208 77.675 13.768 77.451 14.312C77.243 14.856 77.043 15.36 76.851 15.824C76.659 16.288 76.491 16.672 76.347 16.976C76.859 16.896 77.371 16.816 77.883 16.736C78.411 16.64 78.947 16.528 79.491 16.4C79.299 15.84 79.099 15.304 78.891 14.792C78.699 14.28 78.515 13.816 78.339 13.4L80.907 12.296C81.291 13.128 81.659 13.992 82.011 14.888C82.363 15.768 82.755 16.76 83.187 17.864C83.507 17.224 83.747 16.576 83.907 15.92C84.067 15.248 84.179 14.544 84.243 13.808C84.323 13.056 84.371 12.248 84.387 11.384C84.419 10.52 84.451 9.568 84.483 8.528C84.483 8.4 84.483 8.272 84.483 8.144C84.499 8 84.507 7.84 84.507 7.664H82.395V4.736H84.555L84.603 0.967999L87.483 1.112V2.144C87.483 2.464 87.475 2.848 87.459 3.296C87.459 3.744 87.451 4.224 87.435 4.736H92.331ZM81.723 5.048H73.659V2.168H81.723V5.048ZM116.604 1.76V4.544H95.988V1.76H116.604ZM112.764 5.768L115.644 5.888V21.752H96.924V5.792L99.828 5.912V18.872H112.764V5.768ZM111.78 5.792V17.744H100.812V5.792H111.78ZM103.524 8.36V10.568H105.036V8.36H103.524ZM109.092 8.36H107.604V10.568H109.092V8.36ZM103.524 15.2H105.036V13.016H103.524V15.2ZM109.092 15.2V13.016H107.604V15.2H109.092Z" fill="#CC0505"/>
</svg>
