<svg width="19" height="20" viewBox="0 0 19 20" fill="none" xmlns="http://www.w3.org/2000/svg">
<path d="M8.58334 12.7502H10.4167V14.5835H8.58334V12.7502ZM8.58334 5.41683H10.4167V10.9168H8.58334V5.41683ZM9.49084 0.833496C4.43084 0.833496 0.333344 4.94016 0.333344 10.0002C0.333344 15.0602 4.43084 19.1668 9.49084 19.1668C14.56 19.1668 18.6667 15.0602 18.6667 10.0002C18.6667 4.94016 14.56 0.833496 9.49084 0.833496ZM9.50001 17.3335C5.44834 17.3335 2.16668 14.0518 2.16668 10.0002C2.16668 5.9485 5.44834 2.66683 9.50001 2.66683C13.5517 2.66683 16.8333 5.9485 16.8333 10.0002C16.8333 14.0518 13.5517 17.3335 9.50001 17.3335Z" fill="#D32F2F"/>
</svg>
